<svg xmlns="http://www.w3.org/2000/svg" viewBox="0 0 64 64" role="img" aria-label="RepoMetrics icon">
	<defs>
		<linearGradient id="bg" x1="0" y1="0" x2="1" y2="1">
			<stop offset="0" stop-color="#0a2e7a" />
			<stop offset="1" stop-color="#061b48" />
		</linearGradient>
		<linearGradient id="lens" x1="0" y1="0" x2="1" y2="1">
			<stop offset="0" stop-color="#62d7ff" />
			<stop offset="1" stop-color="#1f66d2" />
		</linearGradient>
		<linearGradient id="ring" x1="0" y1="0" x2="1" y2="1">
			<stop offset="0" stop-color="#b6f5ff" />
			<stop offset="1" stop-color="#4ad6ff" />
		</linearGradient>
	</defs>

	<rect width="64" height="64" rx="10" fill="url(#bg)" />

	<g transform="translate(2 2)">
		<circle cx="30" cy="26" r="20" fill="url(#lens)" />
		<circle cx="30" cy="26" r="16" fill="#2bb2e8" opacity="0.85" />
		<circle cx="30" cy="26" r="20" fill="none" stroke="url(#ring)" stroke-width="4" />

		<rect x="7" y="42" width="20" height="8" rx="4" transform="rotate(-40 7 42)" fill="#53c9ff" />

		<g fill="#0d1326" transform="translate(0 1)">
			<path d="M23 30c0-4.2 3.1-7 7-7s7 2.8 7 7v8H23z" />
			<path d="M24 24l3-4 3 4z" />
			<path d="M37 24l-3-4-3 4z" transform="translate(6 0)" />
			<rect x="23" y="37" width="3" height="8" rx="1.2" />
			<rect x="34" y="37" width="3" height="8" rx="1.2" />
		</g>

		<ellipse cx="30" cy="31" rx="2.1" ry="2.3" fill="#ffe6c7" />
		<ellipse cx="37" cy="31" rx="2.1" ry="2.3" fill="#ffe6c7" />
		<path d="M32 35c0.8-0.8 2.2-0.8 3 0" stroke="#ffe6c7" stroke-width="1.3" fill="none" stroke-linecap="round" />
	</g>
</svg>